<svg width="27" height="27" viewBox="0 0 27 27" fill="none" xmlns="http://www.w3.org/2000/svg">
<g clip-path="url(#clip0_795_67)">
<path d="M1.09607 1.18091H5.48033L8.41779 15.8572C8.51802 16.3619 8.79254 16.8151 9.19331 17.1378C9.59407 17.4604 10.0955 17.6318 10.6099 17.6219H21.2637C21.7781 17.6318 22.2795 17.4604 22.6803 17.1378C23.0811 16.8151 23.3556 16.3619 23.4558 15.8572L25.2095 6.66124H6.5764M10.9607 23.1022C10.9607 23.7076 10.4699 24.1983 9.8646 24.1983C9.25925 24.1983 8.76853 23.7076 8.76853 23.1022C8.76853 22.4969 9.25925 22.0062 9.8646 22.0062C10.4699 22.0062 10.9607 22.4969 10.9607 23.1022ZM23.0174 23.1022C23.0174 23.7076 22.5267 24.1983 21.9213 24.1983C21.316 24.1983 20.8253 23.7076 20.8253 23.1022C20.8253 22.4969 21.316 22.0062 21.9213 22.0062C22.5267 22.0062 23.0174 22.4969 23.0174 23.1022Z" stroke="#F3F3F3" stroke-width="2.19213" stroke-linecap="round" stroke-linejoin="round"/>
</g>
<defs>
<clipPath id="clip0_795_67">
<rect width="26.3056" height="26.3056" fill="white" transform="translate(0 0.0848389)"/>
</clipPath>
</defs>
</svg>
