<svg width="19" height="19" viewBox="0 0 19 19" fill="none" xmlns="http://www.w3.org/2000/svg">
<path d="M0.886765 1.09558H4.0113L6.10473 11.555C6.17616 11.9146 6.37181 12.2376 6.65742 12.4676C6.94303 12.6975 7.30041 12.8196 7.667 12.8126H15.2596C15.6262 12.8196 15.9836 12.6975 16.2692 12.4676C16.5548 12.2376 16.7505 11.9146 16.8219 11.555L18.0717 5.00125H4.79243M7.91696 16.7182C7.91696 17.1497 7.56724 17.4994 7.13583 17.4994C6.70442 17.4994 6.3547 17.1497 6.3547 16.7182C6.3547 16.2868 6.70442 15.9371 7.13583 15.9371C7.56724 15.9371 7.91696 16.2868 7.91696 16.7182ZM16.5094 16.7182C16.5094 17.1497 16.1597 17.4994 15.7283 17.4994C15.2969 17.4994 14.9472 17.1497 14.9472 16.7182C14.9472 16.2868 15.2969 15.9371 15.7283 15.9371C16.1597 15.9371 16.5094 16.2868 16.5094 16.7182Z" stroke="#F3F3F3" stroke-width="1.59967" stroke-linecap="round" stroke-linejoin="round"/>
</svg>
