<svg width="9" height="16" viewBox="0 0 9 16" fill="none" xmlns="http://www.w3.org/2000/svg">
<path d="M8.126 5.0261H5.99187C5.89261 3.50409 5.2805 3.32211 4.6353 3.32211V6.41577C6.1904 6.91208 6.98449 7.32567 7.39808 7.72271C8.29144 8.56644 8.30798 9.62523 8.30798 10.0388C8.30798 11.5608 7.36499 13.4468 4.6353 13.5957V15.217H3.87429V13.5957C1.19423 13.3806 0.151979 12.2226 0.151979 9.75758H2.31919C2.41845 10.9156 2.60043 11.6105 3.87429 11.8421V8.36791C2.25302 7.93778 0.400133 7.29258 0.400133 5.00956C0.400133 3.20631 1.5251 1.60158 3.87429 1.56849V0.493154H4.6353V1.56849C5.87607 1.70084 7.91093 2.08134 8.126 5.0261ZM3.87429 6.18416V3.32211C2.89822 3.37174 2.48463 4.06657 2.48463 4.61251C2.48463 5.68785 3.22909 6.03526 3.87429 6.18416ZM4.6353 8.64915V11.8421C5.18124 11.809 6.09114 11.4947 6.09114 10.2208C6.09114 9.26127 5.29704 8.83113 4.6353 8.64915Z" fill="white"/>
</svg>
