<svg width="12" height="13" viewBox="0 0 12 13" fill="none" xmlns="http://www.w3.org/2000/svg">
<path d="M1.55341 3.711H2.48532M2.48532 3.711H9.94064M2.48532 3.711V10.2344C2.48532 10.4816 2.5835 10.7186 2.75827 10.8934C2.93304 11.0681 3.17008 11.1663 3.41724 11.1663H8.07681C8.32397 11.1663 8.56101 11.0681 8.73578 10.8934C8.91055 10.7186 9.00873 10.4816 9.00873 10.2344V3.711M3.88319 3.711V2.77908C3.88319 2.53192 3.98138 2.29489 4.15615 2.12012C4.33091 1.94535 4.56795 1.84717 4.81511 1.84717H6.67894C6.9261 1.84717 7.16314 1.94535 7.3379 2.12012C7.51267 2.29489 7.61086 2.53192 7.61086 2.77908V3.711" stroke="#D9D9D9" stroke-width="0.931915" stroke-linecap="round" stroke-linejoin="round"/>
</svg>
