<?xml version="1.0" encoding="UTF-8"?>
<svg id="Layer_1" xmlns="http://www.w3.org/2000/svg" version="1.1" viewBox="0 0 1080 1080">
  <!-- Generator: Adobe Illustrator 29.1.0, SVG Export Plug-In . SVG Version: 2.1.0 Build 142)  -->
  <defs>
    <style>
      .st0 {
        fill: #fff;
      }
    </style>
  </defs>
  <path class="st0" d="M481.9,952.6l78.3-238.4-54.7-39.7-17,55.1-1,.8-96.6,77.1H74.6l37.6-108.3h63.5l146.1-454.5h-50.9l40.2-117.3h249.3l67.4,88.9-68.1,208.6c-1.3,4.1-3.8,7.8-7,10.6l-24.9,21.9,26.6,45c2.9,5,3.5,10.9,1.6,16.4l-18.8,53.2h69.9l75.4-235.2,74.5,235.2h248.3l-200.4,143,73.4,232.9-196.2-142.9-200.3,147.4ZM501.1,661.4l68.6,49.8-72.3,220,184.7-135.9,181.2,131.9-67.8-215.1,184.6-131.8h-228.9l-68.6-216.6-69.5,216.6h-87.3l22.6-64c1.1-3.2.8-6.7-.9-9.6l-30-50.8,29.9-26.3c2.2-1.9,3.8-4.3,4.7-7.1l66.8-204.5-62.5-82.4h-239.5l-34.7,101.1h50.7l-151.3,470.7h-63.6l-32,92.2h302.1l93.4-74.6,19.6-63.5ZM780.4,812l-97.7-72-99.1,69.3,38.6-112.7-96.3-73.4h119.6l37.1-114.7,39.5,115.3h122.2l-100.7,72,36.8,116.2ZM682.8,730.1l82.4,60.7-31.1-98.1,85-60.7h-102.7l-33.5-97.8-31.4,97.2h-101.6l81.9,62.4-32.5,94.8,83.5-58.4ZM373.7,709.6h-110.4l78.5-233.5h140.7l-31.9,102.7h-65.7l50.8,35.8-21.4,65.7c-5.7,17.6-22,29.4-40.5,29.4ZM274.6,701.6h99.1c15,0,28.1-9.6,32.8-23.8l19.6-60-66.8-47h85.3l26.9-86.5h-123.9l-73,217.3ZM451.2,402.3h-86.7l54.9-164.8h111.1l-47.8,142.1c-4.6,13.6-17.3,22.7-31.6,22.7ZM375.8,394.2h75.4c10.9,0,20.5-6.9,24-17.2h0s44.2-131.4,44.2-131.4h-94l-49.6,148.6Z"/>
</svg>