<?xml version="1.0" encoding="UTF-8"?>
<svg id="Layer_1" xmlns="http://www.w3.org/2000/svg" version="1.1" viewBox="0 0 1080 1080">
  <!-- Generator: Adobe Illustrator 29.1.0, SVG Export Plug-In . SVG Version: 2.1.0 Build 142)  -->
  <defs>
    <style>
      .st0 {
        fill: #fff;
      }
    </style>
  </defs>
  <path class="st0" d="M999.5,580.1h-240.4l-72.1-227.6-73,227.6h-79.2l20.8-59.1c1.5-4.3,1.1-9.1-1.3-13.1l-28.6-48.3,27.6-24.3c2.7-2.4,4.7-5.5,5.9-8.9l68-208.1-65.4-86.3h-246.3l-37.7,110h51.2l-149.9,466.2h-64l-35.1,101h311.6l96.3-76.8,18.5-59.8,62.1,45-75.9,231,194-142.7,190.2,138.5-71.1-225.7,194-138.5ZM450.1,578.6h-76.1l59.3,41.7-20.7,63.3c-5.2,16-20.1,26.8-36.9,26.8h-105.6l76.3-227.2h133.3l-29.7,95.3ZM481.8,380.7c-4,12-15.3,20.1-28,20.1h-81.7l52.7-157.9h103.4l-46.3,137.8ZM687,740.2l-92,64.4,35.8-104.5-89.8-68.4h111.5l34.5-106.8,36.7,107.4h113.3l-93.6,66.9,34.2,108-90.7-66.9Z"/>
</svg>